<?xml version="1.0" encoding="utf-8"?>
<!-- Generator: Adobe Illustrator 19.1.0, SVG Export Plug-In . SVG Version: 6.00 Build 0)  -->
<svg version="1.1" id="Layer_1" xmlns="http://www.w3.org/2000/svg" xmlns:xlink="http://www.w3.org/1999/xlink" x="0px" y="0px"
	 viewBox="0 0 674 130.7" style="enable-background:new 0 0 674 130.7;" xml:space="preserve">
<style type="text/css">
	.st0{fill:#FFFFFF;}
</style>
<g>
	<g>
		<path class="st0" d="M204.2,29.4h3.1v50.4c0,7.9-2.1,14.4-6.3,19.5c-6.1,7.4-13.8,11-23.3,11c-6.1,0-11.7-1.6-16.8-4.7
			c-5.1-3.2-8.8-7.4-11.2-12.7h3.6c5.7,9.7,13.8,14.6,24.2,14.6c7.7,0,14-2.6,19.1-7.7c5.1-5.2,7.6-11.6,7.6-19.3V71
			c-6.3,11.1-15.3,16.6-27.1,16.6c-8.7,0-16-2.9-22-8.6c-6-5.7-9-12.8-9-21.1s3-15.4,8.9-21.2c5.9-5.8,13.1-8.7,21.6-8.7
			c9.3,0,16.8,3.2,22.7,9.5c1.8,2,3.4,4.5,4.9,7.5V29.4z M176.7,30.8c-7.6,0-14.1,2.6-19.4,7.9c-5.4,5.2-8.1,11.6-8.1,19
			c0,7.5,2.7,13.9,8.1,19.1c5.4,5.3,11.9,7.9,19.5,7.9c7.6,0,14-2.6,19.4-7.9c5.3-5.2,8-11.6,8-19.1c0-7.4-2.7-13.7-8.1-19
			C190.8,33.5,184.3,30.8,176.7,30.8z"/>
		<path class="st0" d="M274.9,56.7v1.5h-54.2c0.5,7.7,3.1,14,8,19c4.8,5,10.7,7.5,17.7,7.5c4.7,0,9-1.3,13.1-4
			c4-2.7,7.2-6.3,9.4-10.8h3.4c-2.2,5.4-5.7,9.7-10.4,12.9c-4.7,3.2-9.9,4.8-15.5,4.8c-7.8,0-14.6-3-20.4-9
			c-5.7-6-8.6-13.1-8.6-21.2c0-8.1,2.8-15,8.4-20.7c5.6-5.7,12.4-8.6,20.3-8.6c7.8,0,14.5,2.9,20.2,8.6
			C272.1,42.3,274.9,49,274.9,56.7z M220.7,55.4h50.9c-0.6-6.9-3.3-12.7-8.2-17.4c-4.9-4.8-10.7-7.1-17.3-7.1
			c-6.6,0-12.3,2.3-17.1,6.9C224.3,42.3,221.5,48.2,220.7,55.4z"/>
		<path class="st0" d="M285.2,29.4h3.3v9c4.3-7,10.3-10.4,18.2-10.4c4.9,0,9.4,1.4,13.4,4.3c3.2,2.3,5.7,5.5,7.5,9.7
			c1.3-3,2.7-5.4,4.3-7.1c4.2-4.6,9.6-6.9,16.1-6.9c8.6,0,15.1,3.7,19.5,11.2c1.9,3.2,2.8,8.3,2.8,15.2v31.8h-3.1V54.4
			c0-8.1-1.8-13.9-5.4-17.6c-3.9-3.9-8.4-5.9-13.7-5.9c-3.7,0-7.2,1-10.4,3.1c-3.2,2.1-5.5,4.7-6.8,8.1c-1,2.5-1.5,6.7-1.5,12.4
			v31.7h-3.1V55c0-7.3-1.5-13-4.5-16.8c-3.8-4.9-8.7-7.3-14.7-7.3c-5.8,0-10.5,2.1-14.2,6.4c-3.1,3.6-4.6,9.1-4.6,16.6v32.3h-3.1
			V29.4z"/>
		<path class="st0" d="M402.3,24.8c6.3,0,11.3,1.7,15.2,5c3.9,3.3,6.1,7.9,6.6,13.7h-17.3c-0.3-2.9-2-4.4-5.1-4.4
			c-3.7,0-5.6,1.3-5.6,3.8c0,2.7,3.1,4.9,9.2,6.5c6.1,1.7,10.2,3,12.3,4.2c2.1,1.1,4,2.8,5.6,5.2c1.8,2.6,2.7,5.7,2.7,9.3
			c0,5.8-2.4,10.6-7.1,14.4c-4.7,3.8-10.6,5.8-17.6,5.8c-6.6,0-12.1-1.8-16.4-5.3c-4.3-3.5-6.7-8.3-7.4-14.4h17.7
			c0.5,3.6,2.7,5.5,6.8,5.5c1.7,0,3.1-0.4,4.3-1.3c1.2-0.9,1.8-1.9,1.8-3.2c0-2.8-2.3-4.7-6.9-5.9l-10.4-2.7c-3.6-0.9-6.6-3-9-6.1
			c-2.4-3.1-3.6-6.5-3.6-10.3c0-5.5,2.3-10.1,6.9-13.9C389.9,26.7,395.6,24.8,402.3,24.8z"/>
		<path class="st0" d="M478,26.8h16.7v59.4H478v-6.4c-2.8,5.6-8.9,8.4-18.4,8.4c-8.9,0-16.2-2.9-21.8-8.8
			c-5.6-5.9-8.4-13.5-8.4-22.9c0-9.3,2.8-17,8.5-22.9c5.7-5.9,13-8.9,22-8.9c8.8,0,14.8,2.8,18,8.4V26.8z M462,41.4
			c-4.2,0-7.7,1.5-10.5,4.3c-2.8,2.9-4.2,6.5-4.2,10.8c0,4.3,1.4,7.9,4.3,10.8c2.8,2.9,6.4,4.3,10.6,4.3c4.4,0,7.9-1.4,10.7-4.3
			c2.8-2.9,4.2-6.5,4.2-11c0-4.3-1.4-7.9-4.2-10.7C469.9,42.8,466.4,41.4,462,41.4z"/>
		<path class="st0" d="M538.3,26.8h18.4l-21.4,59.4h-17L497,26.8h18.4l11.4,37L538.3,26.8z"/>
		<polygon class="st0" points="593.3,26.8 581.8,63.8 570.4,26.8 559.4,26.8 555.7,37.1 573.4,86.1 590.3,86.1 611.7,26.8 		"/>
		<polygon class="st0" points="649.3,26.8 637.8,61.2 625.8,26.8 614.4,26.8 610.8,36.7 629,83.2 619.6,106 638.4,106 668.2,26.8 		
			"/>
	</g>
	<g>
		<g>
			<polygon class="st0" points="8.2,41.8 40.5,75.6 46.2,42.2 			"/>
			<polygon class="st0" points="7.4,94 45.4,124.6 40.3,79.2 			"/>
			<polygon class="st0" points="49.8,125.2 96.7,114.8 82.4,92.7 			"/>
			<polygon class="st0" points="46.4,40.2 46.4,10.1 8.7,39.8 			"/>
			<polygon class="st0" points="80,89.3 48,43.8 42.3,77 			"/>
			<polygon class="st0" points="83.9,91.5 98.2,113.5 119.2,70.5 			"/>
			<polygon class="st0" points="120.3,67.5 99.2,23.2 84,89.1 			"/>
			<polygon class="st0" points="48.4,9.3 48.4,39.7 95.6,20.4 			"/>
			<polygon class="st0" points="6.8,43.3 6.5,92.2 39.4,77.4 			"/>
			<polygon class="st0" points="42.3,79.2 47.5,124.8 80.7,91.6 			"/>
			<polygon class="st0" points="82.1,88.7 97.5,21.8 48.9,41.7 			"/>
		</g>
	</g>
</g>
</svg>
